<svg width="5695" height="3218" viewBox="0 0 5695 3218" fill="none" xmlns="http://www.w3.org/2000/svg">
<path d="M48.0894 1680.32C188.952 1647.96 235.94 1639.09 371.116 1610.29L381.89 2227.55C437.59 1993.17 475.961 1820.02 532.669 1577.57C667.725 1541.87 739.86 1524.51 882.942 1487.52C809.754 1773.95 772.211 1928.68 698.802 2202.47C804.023 2499.59 842.531 2597.8 950.291 2908.67C794.465 2940.14 793.316 2940.16 586.065 2989.77C505.445 2718.67 473.185 2649.09 392.705 2386.04C397.4 2655.01 399.306 2764.21 404.001 3033.19C249.485 3073.83 204.817 3083.81 52.5794 3123.26C49.1173 2595.55 56.2497 2213.69 46.8998 1678.04L48.0894 1680.32Z" fill="white"></path>
<path d="M942.226 2504.03C937.33 2223.56 934.883 2083.32 930.007 1804C925.613 1552.27 1071.05 1386.46 1350.09 1299.95C1630.29 1213.42 1779 1301.66 1783.78 1575.23C1789.08 1878.69 1791.72 2030.42 1797.02 2333.88C1802.08 2623.55 1653.66 2815.86 1377.34 2860.93C1101.02 2905.99 946.901 2771.85 942.246 2505.18L942.226 2504.03ZM1377 2578.08C1429.71 2567.96 1455.33 2520.37 1453.68 2426.11C1448.41 2123.8 1445.78 1973.22 1440.5 1670.91C1439.16 1593.9 1412.22 1565.62 1361.88 1580.3C1303.52 1596.26 1275.57 1641.59 1276.93 1719.76L1289.87 2461.17C1291.54 2556.57 1313.98 2590.67 1377 2578.08Z" fill="white"></path>
<path d="M1895.74 1131.71C2038.58 1080.93 2109.41 1054.39 2252.21 1001.31C2321.73 1295.6 2355.38 1444.49 2425.04 1746.82C2419.41 1423.82 2416.6 1262.9 2410.98 941.046C2544.62 890.421 2610.85 863.969 2744.48 812.195C2756.58 1505.32 2762.63 1852.46 2774.73 2545.59C2639.62 2577.85 2572.08 2595.12 2435.79 2626.25C2360.06 2305.62 2322.81 2147.59 2248.38 1836.14C2254.18 2168.34 2257.09 2335.01 2262.89 2667.21C2127.75 2698.31 2059.02 2713.31 1923.85 2742.12C1912.61 2098.41 1906.97 1775.41 1895.74 1131.71Z" fill="white"></path>
<path d="M2876.38 761.454C3063.69 689.196 3157.35 653.066 3344.7 583.107C3596.01 489.034 3706.72 573.338 3712.06 879.097L3713.5 961.858C3716.55 1136.58 3660.13 1264.04 3541.77 1333.95C3698.1 1331.22 3743.38 1487.95 3747.29 1712.1C3753.69 2078.78 3681.09 2333.01 3376.46 2402.71C3188.65 2446.24 3094.75 2468.57 2906.98 2514.39C2894.74 1813.22 2888.62 1462.63 2876.4 762.604L2876.38 761.454ZM3297.18 1286.47C3361.21 1265.81 3372.75 1202.37 3371.47 1128.8L3368.28 946.038C3367.24 886.265 3342.72 864.847 3292.44 882.972C3263.86 892.669 3249.02 898.677 3220.44 908.374C3223.23 1068.15 3224.64 1148.61 3227.43 1308.39C3256 1298.69 3269.74 1295 3298.31 1285.31L3297.18 1286.47ZM3274.73 2107.84C3365.15 2084.41 3408.98 2026.16 3407.43 1937.65C3405.89 1849.14 3405.05 1800.86 3403.46 1710.05C3401.64 1605.45 3376.51 1549.55 3295.28 1572.81C3268.96 1580.17 3256.38 1583.84 3231.23 1592.33C3234.88 1801.53 3236.71 1906.13 3240.34 2114.19C3254.1 2111.65 3260.97 2110.38 3274.73 2107.84Z" fill="white"></path>
<path d="M3804.72 415.938C3938.44 369.911 4004.73 346.907 4138.54 305.478C4152.04 1079.07 4158.8 1466.44 4172.28 2238.88C4038.16 2261.92 3971.69 2274.58 3837.62 2301.07C3824.46 1547.01 3817.88 1169.99 3804.7 414.789L3804.72 415.938Z" fill="white"></path>
<path d="M4256.88 269.308C4399.86 226.568 4470.79 205.783 4613.87 168.791C4684.66 535.498 4718.95 721.17 4789.92 1098.22C4783.16 710.85 4779.77 516.59 4773.01 129.219C4906.99 98.1353 4973.44 84.3274 5107.55 60.1401C5122.01 888.906 5129.26 1303.86 5143.74 2133.78C5008.15 2138.45 4940.39 2143.08 4803.76 2154.66C4726.66 1755.87 4688.73 1558.76 4612.98 1171.45C4619.96 1571.46 4623.47 1772.62 4630.45 2172.63C4495.06 2188.8 4426.23 2198.05 4290.91 2218.81C4277.29 1438.32 4270.49 1048.65 4256.86 268.158L4256.88 269.308Z" fill="white"></path>
<path d="M5225.04 42.7515C5359.21 22.0125 5425.74 12.8025 5560.07 1.25925L5597.19 2127.77L5261.54 2133.63C5246.95 1297.97 5239.63 878.415 5225.04 42.7515Z" fill="white"></path>
<path d="M136.43 3179.6L472.889 3088.65L465.924 2953.09" stroke="white" stroke-width="25.5361" stroke-miterlimit="10" stroke-linecap="round"></path>
<path d="M706.469 3018.33L1039.86 2949.27L966.854 2784.97" stroke="white" stroke-width="25.5361" stroke-miterlimit="10" stroke-linecap="round"></path>
<path d="M1160.95 2914.59C1195.51 2918.59 1584.85 2958.94 1753.04 2713.39C1775.47 2680.8 1797.71 2637.87 1811.67 2581.29" stroke="white" stroke-width="25.5361" stroke-miterlimit="10" stroke-linecap="round"></path>
<path d="M2003.63 2777.9L2314.1 2712.69L2305.36 2541.52" stroke="white" stroke-width="25.5361" stroke-miterlimit="10" stroke-linecap="round"></path>
<path d="M2531.73 2674.21L2839.69 2597.55L2831.19 2440.17" stroke="white" stroke-width="25.5361" stroke-miterlimit="10" stroke-linecap="round"></path>
<path d="M3020.66 2548.75C3192.4 2506.66 3344.6 2464.91 3516.33 2422.81C3627.29 2389.83 3722.87 2266.28 3750.99 2164.61" stroke="white" stroke-width="25.5361" stroke-miterlimit="10" stroke-linecap="round"></path>
<path d="M3940.35 2339.68L4233.77 2286.26L4230.7 2110.4" stroke="white" stroke-width="25.5361" stroke-miterlimit="10" stroke-linecap="round"></path>
<path d="M4459 2272.32L4719.36 2235.58L4700.94 1904.75" stroke="white" stroke-width="25.5361" stroke-miterlimit="10" stroke-linecap="round"></path>
<path d="M4933.4 2203.68L5210.26 2189.65L5199.47 1966.77" stroke="white" stroke-width="25.5361" stroke-miterlimit="10" stroke-linecap="round"></path>
<path d="M5410.26 2198.74L5674.64 2194.12L5643.64 220.427" stroke="white" stroke-width="25.5361" stroke-miterlimit="10" stroke-linecap="round"></path>
<path d="M3307.69 941.54L3266.57 957.205L3266.57 1022.74" stroke="white" stroke-width="25.5361" stroke-miterlimit="10" stroke-linecap="round"></path>
<path d="M3324.19 1626.62L3283.07 1642.28L3283.06 1707.82" stroke="white" stroke-width="25.5361" stroke-miterlimit="10" stroke-linecap="round"></path>
<path d="M1387.22 1640.08C1341.38 1648.93 1331.07 1651.41 1331.67 1751.44" stroke="white" stroke-width="25.5361" stroke-miterlimit="10" stroke-linecap="round"></path>
<path d="M2834.62 118.005C2834.82 129.664 2844.46 138.972 2856.12 138.769C2867.78 138.565 2877.09 128.926 2876.89 117.267C2876.68 105.607 2867.04 96.2996 2855.38 96.5031C2843.73 96.7066 2834.42 106.345 2834.62 118.005ZM2812.03 118.399C2811.61 94.3514 2830.94 74.3326 2854.99 73.9129C2879.04 73.4931 2899.06 92.825 2899.48 116.873C2899.9 140.92 2880.56 160.939 2856.52 161.359C2832.47 161.778 2812.45 142.447 2812.03 118.399ZM2856.98 146.407C2853.46 153.394 2851.1 164.005 2849.41 171.688C2841.65 207.541 2826.61 264.661 2796.71 305.639C2764.68 349.934 2716.85 386.851 2651.99 408.758L2611.52 365.728C2683.73 347.702 2724.35 315.285 2752.86 277.976C2776.74 247.308 2789.86 205.529 2794.05 174.112C2771.83 174.5 2651.59 176.599 2624.26 177.076C2607.5 177.368 2590.39 178.76 2580.93 179.654L2580.03 127.916C2590.99 129.182 2611.42 130.648 2623.45 130.438C2650.77 129.961 2771.74 127.85 2792.14 127.493C2799.43 127.366 2811.08 126.798 2820.51 124.082L2856.98 146.407Z" fill="white"></path>
<path d="M2374.71 176.973C2381.9 192.155 2400.58 239.574 2405.98 256.246L2362.88 271.941C2357.84 254.535 2341.04 210.727 2331.96 191.933L2374.71 176.973ZM2509.61 200.86C2505.81 212.954 2503.76 220.643 2501.7 227.969C2492.87 264.934 2477.87 303.101 2453.64 335.232C2420.53 379.911 2375.88 410.941 2333.53 428.082L2294.59 389.763C2334.12 378.139 2384.64 349.558 2413.86 311.143C2438.1 280.104 2455.11 231.333 2458.32 185.354L2509.61 200.86ZM2290.51 197.395C2299.94 215.818 2318.57 259.958 2325.85 280.242L2281.68 297.413C2275.52 278.204 2256.08 229.705 2247.06 214.19L2290.51 197.395Z" fill="white"></path>
<path d="M1916.56 195.64C1926.04 196.204 1948.28 196.544 1961.76 196.309C1991.64 195.788 2069.61 194.427 2099.85 193.899C2108.23 193.752 2121.71 193.153 2127.53 192.687C2127.26 197.794 2127.47 209.818 2127.6 217.469C2127.86 232.044 2130.29 371.228 2130.79 400.012C2130.89 405.842 2131.48 418.588 2131.58 424.782L2086.04 425.577C2086.3 419.741 2086.06 405.896 2085.93 398.608C2085.28 361.444 2083.29 247.4 2083.08 235.376C2068.87 235.624 1991.99 236.966 1962.48 237.481C1949 237.717 1926.42 238.84 1917.32 239.363L1916.56 195.64ZM1927.52 280.735C1937.01 281.298 1953.77 281.37 1967.62 281.128C1985.47 280.816 2095.14 278.902 2104.98 278.73L2105.71 320.267C2095.5 320.445 1986.2 322.353 1968.34 322.665C1954.5 322.906 1937.01 323.212 1928.28 324.093L1927.52 280.735ZM1915.96 370.231C1921.8 370.858 1934.2 371.371 1947.32 371.142C1969.91 370.747 2091.24 368.629 2106.91 368.356L2107.65 410.986C2087.61 411.336 1970.65 413.377 1948.06 413.771C1937.5 413.956 1922.57 414.945 1916.74 415.047L1915.96 370.231Z" fill="white"></path>
<path d="M1598.35 119.063C1622.63 131.761 1663.15 156.566 1682.34 169.716L1656.07 210.266C1635.42 196.413 1597.1 172.662 1572.82 159.601L1598.35 119.063ZM1535.46 378.934C1576.15 371.299 1619.29 358.154 1658.62 335.599C1719.96 299.904 1770.1 249.097 1797.97 196.491L1826.9 245.554C1794.26 296.785 1743.32 343.597 1684.54 379.247C1647.73 400.665 1595.58 419.798 1563.62 426.188L1535.46 378.934ZM1543.69 203.116C1568.33 215.807 1608.84 239.884 1628.03 253.034L1601.78 294.313C1581.12 280.095 1542.8 256.344 1518.16 243.654L1543.69 203.116Z" fill="white"></path>
<path d="M1196.5 166.302C1210.01 167.525 1226.78 167.961 1239.54 167.738C1270.14 167.204 1370.34 165.455 1390.38 165.105C1404.96 164.851 1420.25 163.855 1430.79 162.213L1431.71 215.045C1421.14 214.865 1404 214.435 1391.25 214.658C1371.93 214.995 1260.81 216.935 1240.4 217.291C1226.56 217.532 1209.81 218.554 1197.43 219.134L1196.5 166.302ZM1169.01 345.372C1183.24 345.852 1200.39 347.011 1214.96 346.757C1237.92 346.356 1401.15 343.507 1424.1 343.106C1436.13 342.896 1451.78 341.53 1464.14 340.22L1465.12 395.967C1451.98 394.738 1435.56 393.932 1424.99 394.116C1402.04 394.517 1238.81 397.366 1215.85 397.767C1201.28 398.021 1183.81 399.419 1169.99 401.118L1169.01 345.372Z" fill="white"></path>
<path d="M1051.4 121.285C1060.74 134.607 1073.9 157.339 1081.05 170.699L1052.13 183.961C1044.21 169.156 1032.91 147.849 1022.82 133.811L1051.4 121.285ZM1094.11 104.138C1103.82 117.818 1117.7 140.538 1124.48 153.176L1095.56 166.437C1088 151.261 1075.61 130.338 1065.53 116.664L1094.11 104.138ZM894.275 140.064C893.008 151.02 892.201 167.435 892.386 178.002C892.774 200.227 895.114 334.311 895.591 361.638C895.871 377.67 903.228 381.55 919.675 384.179C930.638 385.81 945.583 385.914 961.614 385.634C999.872 384.966 1058.46 379.57 1088.56 371.026L1089.49 424.222C1054.96 429.927 999.983 433.074 959.903 433.773C936.22 434.187 913.969 433.117 898.257 430.84C866.821 425.558 847.939 408.757 847.386 377.058C846.655 335.157 844.321 201.438 843.926 178.848C843.78 170.467 842.363 151.904 840.714 140.999L894.275 140.064ZM872.18 252.342C919.004 241.319 980.966 220.556 1018.95 204.221C1031.61 198.533 1043.89 192.487 1058.32 183.853L1078.43 229.424C1064.69 235.496 1048.41 242.705 1036.47 247.651C993.765 264.798 922.726 287.542 873.377 300.066L872.18 252.342Z" fill="white"></path>
<path d="M518.925 149.012C544.364 165.698 592.392 202.764 614.277 224.615L577.774 263.157C558.471 243.083 511.869 204.17 484.953 186.416L518.925 149.012ZM477.251 392.475C534.315 383.461 580.993 364.058 615.973 342.673C677.63 304.421 724.03 248.212 746.49 198.617L775.436 249.137C748.974 299.167 701.392 350.294 643.347 386.66C606.571 409.535 559.919 430.395 509.061 440.03L477.251 392.475Z" fill="white"></path>
<path d="M136.489 173.589C150.36 174.804 168.962 175.573 181.714 175.35L365.35 172.145C375.917 171.961 390.843 170.971 397.03 170.499C396.819 179.25 396.338 193.472 396.529 204.403L399.823 393.14C400.046 405.893 401.47 424.82 402.396 436.102L349.564 437.025C349.737 426.088 349.873 412.964 349.637 399.483L346.496 219.491L182.535 222.353C167.232 222.62 147.569 223.692 137.38 224.599L136.489 173.589ZM135.571 371.511C147.978 372.388 164.393 373.195 180.789 372.908L377.906 369.468L378.746 417.563L183.086 420.978C168.876 421.226 148.485 422.311 136.486 423.978L135.571 371.511Z" fill="white"></path>
</svg>