<svg width="188" height="116" viewBox="0 0 188 116" fill="none" xmlns="http://www.w3.org/2000/svg">
<path d="M133.171 95.4628C133.171 94.8527 132.942 94.3571 132.561 94.0521C132.179 93.7471 131.76 93.5946 131.264 93.5946C130.692 93.5946 130.235 93.7852 129.93 94.1665C129.625 94.5477 129.472 94.9671 129.472 95.4628C129.472 95.8059 129.549 96.1109 129.739 96.4541C129.892 96.7972 130.349 97.0641 131.036 97.331L133.209 98.2079C134.581 98.7417 135.534 99.4661 136.03 100.381C136.564 101.296 136.793 102.287 136.793 103.355C136.793 104.118 136.64 104.842 136.373 105.49C136.106 106.138 135.725 106.748 135.229 107.244C134.734 107.74 134.162 108.159 133.514 108.426C132.828 108.731 132.103 108.845 131.302 108.845C129.816 108.845 128.557 108.388 127.566 107.435C127.07 106.977 126.651 106.405 126.346 105.719C126.041 105.033 125.85 104.232 125.85 103.317H129.32C129.396 103.812 129.549 104.308 129.854 104.728C130.159 105.147 130.616 105.376 131.302 105.376C131.836 105.376 132.294 105.185 132.713 104.842C133.133 104.499 133.361 104.003 133.361 103.393C133.361 102.897 133.247 102.44 132.98 102.097C132.713 101.754 132.217 101.411 131.531 101.144L129.777 100.495C128.634 100.076 127.719 99.4279 127.07 98.551C126.422 97.7122 126.079 96.6447 126.079 95.4246C126.079 94.6621 126.232 93.9377 126.498 93.2895C126.803 92.6414 127.185 92.0695 127.68 91.5739C128.176 91.0782 128.71 90.7351 129.358 90.4682C130.006 90.2013 130.692 90.0869 131.455 90.0869C132.217 90.0869 132.904 90.2013 133.514 90.4682C134.162 90.7351 134.696 91.1163 135.153 91.5739C135.611 92.0695 135.954 92.6414 136.221 93.2895C136.488 93.9377 136.602 94.6621 136.602 95.3865H133.133L133.171 95.4628Z" fill="#FF5B49"/>
<path d="M138.599 108.622V81.5899L142.412 81.0561L142.26 92.1128H142.336C142.717 91.5409 143.175 91.0453 143.708 90.7021C144.242 90.3209 144.929 90.1302 145.767 90.1302C146.225 90.1302 146.682 90.2065 147.14 90.359C147.597 90.5115 148.017 90.7784 148.36 91.1215C148.703 91.4647 149.008 91.9603 149.237 92.4941C149.466 93.066 149.58 93.7523 149.58 94.5529V108.584H145.92V95.9255C145.92 95.2392 145.767 94.7054 145.462 94.3242C145.157 93.9429 144.7 93.7523 144.128 93.7523C143.442 93.7523 142.946 93.981 142.679 94.4004C142.412 94.8198 142.298 95.468 142.298 96.2686V108.584H138.638L138.599 108.622Z" fill="#FF5B49"/>
<path d="M151.65 96.4541C151.65 95.7297 151.688 95.0434 151.803 94.3952C151.917 93.7852 152.07 93.2133 152.336 92.7177C152.756 91.917 153.404 91.2688 154.205 90.8113C155.005 90.3157 155.997 90.0869 157.14 90.0869C158.284 90.0869 159.275 90.3157 160.076 90.8113C160.877 91.307 161.487 91.917 161.944 92.7177C162.211 93.2133 162.402 93.7471 162.478 94.3952C162.592 95.0052 162.631 95.6915 162.631 96.4541V102.478C162.631 103.241 162.592 103.927 162.478 104.537C162.364 105.147 162.211 105.719 161.944 106.214C161.525 107.015 160.877 107.625 160.076 108.121C159.275 108.616 158.284 108.845 157.14 108.845C155.997 108.845 155.005 108.616 154.205 108.121C153.404 107.625 152.794 107.015 152.336 106.214C152.07 105.719 151.879 105.185 151.803 104.537C151.688 103.927 151.65 103.241 151.65 102.478V96.4541ZM155.31 103.088C155.31 103.774 155.463 104.308 155.806 104.651C156.111 104.994 156.568 105.185 157.14 105.185C157.712 105.185 158.132 104.994 158.475 104.651C158.818 104.308 158.97 103.774 158.97 103.088V95.9203C158.97 95.234 158.818 94.7002 158.475 94.3571C158.132 94.014 157.712 93.8233 157.14 93.8233C156.568 93.8233 156.149 94.014 155.806 94.3571C155.463 94.7002 155.31 95.234 155.31 95.9203V103.088Z" fill="#FF5B49"/>
<path d="M164.721 115.999V90.3018H168.381V91.9794C168.838 91.4456 169.296 90.9881 169.791 90.645C170.287 90.3018 170.973 90.1112 171.888 90.1112C173.413 90.1112 174.481 90.6831 175.091 91.8269C175.32 92.2463 175.472 92.7419 175.549 93.352C175.625 93.962 175.701 94.7627 175.701 95.7539V102.731C175.701 104.066 175.663 105.057 175.587 105.667C175.434 106.849 174.9 107.764 173.909 108.374C173.413 108.679 172.727 108.831 171.812 108.831C171.088 108.831 170.44 108.679 169.868 108.336C169.296 107.993 168.8 107.535 168.419 106.963H168.343V115.999H164.682H164.721ZM172.041 96.2877C172.041 95.5252 171.888 94.9533 171.622 94.4958C171.317 94.0383 170.859 93.8095 170.249 93.8095C169.715 93.8095 169.258 94.0382 168.915 94.4576C168.571 94.877 168.419 95.4108 168.419 96.0971V103.189C168.419 103.761 168.61 104.256 168.953 104.599C169.296 104.981 169.753 105.171 170.287 105.171C170.973 105.171 171.469 104.942 171.698 104.523C171.965 104.104 172.079 103.57 172.079 102.998V96.2877H172.041Z" fill="#FF5B49"/>
<path d="M181.711 109.14C183.354 109.14 184.685 107.808 184.685 106.166C184.685 104.523 183.354 103.192 181.711 103.192C180.069 103.192 178.738 104.523 178.738 106.166C178.738 107.808 180.069 109.14 181.711 109.14Z" fill="#FF5B49"/>
<path d="M0.686157 52.4877C5.37573 51.4965 6.93892 51.2296 11.4379 50.3527V70.8266C13.4204 63.0869 14.793 57.3679 16.8137 49.3614C21.3126 48.2557 23.7146 47.7219 28.4804 46.5781C25.8878 56.0335 24.5534 61.1425 21.9608 70.1785C25.2778 80.0914 26.4979 83.3703 29.8911 93.7407C24.7059 94.6939 24.6678 94.6939 17.7669 96.2189C15.2505 87.1829 14.2211 84.8572 11.7047 76.0881C11.7047 85.0097 11.7047 88.6318 11.7047 97.5534C6.55765 98.8116 5.07072 99.1166 -0.00012207 100.337C0.190511 82.8365 0.64803 70.1785 0.64803 52.4115L0.686157 52.4877Z" fill="#FF5B49"/>
<path d="M29.8608 80.3105C29.8608 71.0076 29.8608 66.3561 29.8608 57.0914C29.8608 48.7416 34.7792 43.3277 44.0821 40.6207C53.4231 37.9137 58.3033 40.9257 58.3033 49.9998C58.3033 60.0652 58.3033 65.0979 58.3033 75.1634C58.3033 84.7713 53.2706 91.0622 44.0821 92.3966C34.8935 93.731 29.8608 89.194 29.8608 80.3486V80.3105ZM44.2346 83.0174C45.9884 82.7124 46.8653 81.1492 46.8653 78.0229C46.8653 67.9956 46.8653 63.001 46.8653 52.9737C46.8653 50.4192 45.9884 49.466 44.3108 49.9236C42.3664 50.4192 41.4132 51.9061 41.4132 54.4987V79.0904C41.4132 82.2549 42.1376 83.3987 44.2346 83.0174Z" fill="#FF5B49"/>
<path d="M62.2682 35.3678C67.034 33.7664 69.3979 32.9277 74.1637 31.2501C76.2988 41.0486 77.3282 46.0051 79.4633 56.0705C79.4633 45.3569 79.4633 40.0192 79.4633 29.3438C83.9241 27.7424 86.1354 26.9037 90.5963 25.2642C90.5963 48.2546 90.5963 59.7688 90.5963 82.7591C86.0973 83.7504 83.8478 84.2842 79.3108 85.2374C76.9851 74.5619 75.8413 69.3004 73.5537 58.93C73.5537 69.9486 73.5537 75.4769 73.5537 86.4955C69.0547 87.4487 66.7671 87.9062 62.2682 88.7831C62.2682 67.4322 62.2682 56.7187 62.2682 35.3678Z" fill="#FF5B49"/>
<path d="M95.0095 23.6641C101.262 21.3765 104.389 20.2327 110.641 18.0214C119.029 15.0475 122.651 17.907 122.651 28.0487V30.7938C122.651 36.589 120.707 40.783 116.742 43.0324C121.927 43.0324 123.338 48.2558 123.338 55.6905C123.338 67.8528 120.783 76.2407 110.641 78.3758C104.389 79.7102 101.262 80.3965 95.0095 81.8072C95.0095 58.5499 95.0095 46.9213 95.0095 23.7022V23.6641ZM108.659 41.3167C110.794 40.6686 111.213 38.5716 111.213 36.1315V30.0694C111.213 28.0868 110.413 27.3624 108.735 27.9343C107.782 28.2393 107.286 28.4299 106.333 28.7349C106.333 34.0345 106.333 36.7034 106.333 42.003C107.286 41.698 107.744 41.5836 108.697 41.2786L108.659 41.3167ZM107.439 68.5391C110.451 67.8147 111.938 65.9084 111.938 62.9726C111.938 60.0369 111.938 58.4356 111.938 55.4236C111.938 51.954 111.137 50.0858 108.43 50.8102C107.553 51.039 107.134 51.1534 106.295 51.4203C106.295 58.3593 106.295 61.8288 106.295 68.7298C106.753 68.6535 106.981 68.6154 107.439 68.5391Z" fill="#FF5B49"/>
<path d="M125.977 12.7392C130.438 11.2904 132.649 10.566 137.11 9.26965C137.11 34.9289 137.11 47.7775 137.11 73.3986C132.649 74.0849 130.438 74.4661 125.977 75.2668C125.977 50.2557 125.977 37.7502 125.977 12.701V12.7392Z" fill="#FF5B49"/>
<path d="M141.058 8.13578C145.824 6.80135 148.188 6.1532 152.954 5.0094C155.089 17.2099 156.118 23.3864 158.253 35.9301C158.253 23.0814 158.253 16.638 158.253 3.78935C162.714 2.83618 164.926 2.41679 169.386 1.69238C169.386 29.1817 169.386 42.9454 169.386 70.4728C164.887 70.549 162.638 70.6634 158.101 70.9684C155.775 57.7004 154.631 51.1426 152.344 38.2558C152.344 51.5238 152.344 58.196 152.344 71.4641C147.845 71.9216 145.557 72.1885 141.058 72.7985C141.058 46.9105 141.058 33.9856 141.058 8.09765V8.13578Z" fill="#FF5B49"/>
<path d="M173.3 1.18137C177.761 0.57135 179.972 0.304463 184.433 -0.000549316V70.5336H173.3C173.3 42.8156 173.3 28.8994 173.3 1.18137Z" fill="#FF5B49"/>
<path d="M2.74695 102.254L13.9562 99.4327L13.8037 94.9337" stroke="#FF5B49" stroke-width="0.676112" stroke-miterlimit="10" stroke-linecap="round"/>
<path d="M21.7418 97.2417L32.8367 95.1448L30.5109 89.6545" stroke="#FF5B49" stroke-width="0.676112" stroke-miterlimit="10" stroke-linecap="round"/>
<path d="M36.8761 94.064C38.0199 94.2165 50.9067 95.7797 56.6257 87.735C57.3882 86.6674 58.1507 85.2568 58.6464 83.3885" stroke="#FF5B49" stroke-width="0.676112" stroke-miterlimit="10" stroke-linecap="round"/>
<path d="M64.8881 90.0059L75.2204 88.0233L75.0297 82.3424" stroke="#FF5B49" stroke-width="0.676112" stroke-miterlimit="10" stroke-linecap="round"/>
<path d="M82.4736 86.8673L92.7297 84.5034L92.5391 79.2801" stroke="#FF5B49" stroke-width="0.676112" stroke-miterlimit="10" stroke-linecap="round"/>
<path d="M98.7448 82.9963C104.464 81.7 109.535 80.4037 115.254 79.1074C118.952 78.078 122.193 74.0366 123.184 70.6815" stroke="#FF5B49" stroke-width="0.676112" stroke-miterlimit="10" stroke-linecap="round"/>
<path d="M129.362 76.605L139.122 75.0037V69.1703" stroke="#FF5B49" stroke-width="0.676112" stroke-miterlimit="10" stroke-linecap="round"/>
<path d="M146.597 74.6784L155.252 73.6108L154.833 62.6304" stroke="#FF5B49" stroke-width="0.676112" stroke-miterlimit="10" stroke-linecap="round"/>
<path d="M162.386 72.6638L171.574 72.3588L171.345 64.9622" stroke="#FF5B49" stroke-width="0.676112" stroke-miterlimit="10" stroke-linecap="round"/>
<path d="M178.199 72.7674H186.969L187.083 7.30402" stroke="#FF5B49" stroke-width="0.676112" stroke-miterlimit="10" stroke-linecap="round"/>
<path d="M109.201 29.8703L107.828 30.3659L107.79 32.5392" stroke="#FF5B49" stroke-width="0.676112" stroke-miterlimit="10" stroke-linecap="round"/>
<path d="M109.346 52.5955L107.973 53.0911L107.935 55.2643" stroke="#FF5B49" stroke-width="0.676112" stroke-miterlimit="10" stroke-linecap="round"/>
<path d="M45.1149 51.9152C43.5899 52.182 43.2467 52.2583 43.2086 55.5753" stroke="#FF5B49" stroke-width="0.676112" stroke-miterlimit="10" stroke-linecap="round"/>
<path d="M93.983 2.29515C93.983 2.68188 94.2973 2.9961 94.684 2.9961C95.0707 2.9961 95.385 2.68188 95.385 2.29515C95.385 1.90842 95.0707 1.5942 94.684 1.5942C94.2973 1.5942 93.983 1.90842 93.983 2.29515ZM93.2338 2.29515C93.2338 1.49752 93.8864 0.84491 94.684 0.84491C95.4816 0.84491 96.1342 1.49752 96.1342 2.29515C96.1342 3.09278 95.4816 3.74539 94.684 3.74539C93.8864 3.74539 93.2338 3.09278 93.2338 2.29515ZM94.7082 3.24989C94.5873 3.47951 94.5027 3.82999 94.4423 4.08378C94.1643 5.26814 93.6326 7.15346 92.6174 8.49493C91.5297 9.94517 89.9224 11.1416 87.7591 11.8305L86.4418 10.3802C88.8468 9.82432 90.2124 8.77289 91.1793 7.55227C91.989 6.54919 92.4482 5.17146 92.6053 4.13212C91.8681 4.13212 87.88 4.13212 86.9736 4.13212C86.4176 4.13212 85.8496 4.16838 85.5354 4.19255V2.47643C85.898 2.52477 86.5747 2.5852 86.9736 2.5852C87.88 2.5852 91.8923 2.5852 92.5691 2.5852C92.8108 2.5852 93.1975 2.57311 93.5117 2.48852L94.7082 3.24989Z" fill="#FF5B49"/>
<path d="M78.703 3.99188C78.9326 4.49947 79.5248 6.08265 79.694 6.63857L78.2559 7.13407C78.0987 6.55397 77.567 5.09165 77.2769 4.46321L78.703 3.99188ZM83.1625 4.86203C83.0296 5.26084 82.957 5.51464 82.8845 5.75634C82.5703 6.97696 82.0507 8.23384 81.2289 9.28526C80.1049 10.7476 78.6063 11.7507 77.1923 12.2945L75.9234 11.0014C77.2407 10.6388 78.9326 9.72033 79.9236 8.46346C80.7454 7.44829 81.3376 5.84094 81.4706 4.31819L83.1625 4.86203ZM75.8992 4.62032C76.2013 5.23667 76.7935 6.71108 77.0232 7.38786L75.5487 7.9317C75.3554 7.29118 74.739 5.67174 74.449 5.15208L75.8992 4.62032Z" fill="#FF5B49"/>
<path d="M63.5066 4.33954C63.8208 4.36371 64.558 4.38788 65.0052 4.38788C65.9962 4.38788 68.5824 4.38788 69.5855 4.38788C69.8635 4.38788 70.3106 4.37579 70.504 4.36371C70.4919 4.5329 70.4919 4.93172 70.4919 5.18551C70.4919 5.66892 70.4919 10.2855 70.4919 11.2403C70.4919 11.4336 70.504 11.8566 70.504 12.0621H68.9933C69.0054 11.8687 69.0054 11.4095 69.0054 11.1678C69.0054 9.93505 69.0054 6.15234 69.0054 5.75352C68.5341 5.75352 65.9841 5.75352 65.0052 5.75352C64.558 5.75352 63.8087 5.77769 63.5066 5.78978V4.33954ZM63.8208 7.16751C64.135 7.19168 64.691 7.20376 65.1502 7.20376C65.7424 7.20376 69.3801 7.20376 69.7064 7.20376V8.58149C69.368 8.58149 65.7424 8.58149 65.1502 8.58149C64.691 8.58149 64.1109 8.58149 63.8208 8.60566V7.16751ZM63.3857 10.1284C63.5791 10.1526 63.99 10.1768 64.4251 10.1768C65.1744 10.1768 69.1988 10.1768 69.7185 10.1768V11.5907C69.0538 11.5907 65.1744 11.5907 64.4251 11.5907C64.0746 11.5907 63.5791 11.6149 63.3857 11.6149V10.1284Z" fill="#FF5B49"/>
<path d="M52.9917 1.60968C53.7893 2.04475 55.1187 2.89073 55.7471 3.33788L54.8528 4.66727C54.176 4.19594 52.9192 3.38623 52.1215 2.93907L52.9917 1.60968ZM50.7559 10.1903C52.1094 9.96065 53.5476 9.54975 54.8649 8.82463C56.9194 7.67652 58.6113 6.02083 59.5661 4.29263L60.4967 5.93623C59.3848 7.6161 57.6687 9.13885 55.6988 10.287C54.4661 10.9758 52.7258 11.5801 51.6623 11.7735L50.7559 10.1903ZM51.1305 4.36514C51.9402 4.80021 53.2696 5.62201 53.8981 6.06917L53.0037 7.42273C52.327 6.93932 51.0701 6.1296 50.2604 5.69453L51.1305 4.36514Z" fill="#FF5B49"/>
<path d="M39.649 2.94586C40.0961 2.9942 40.652 3.01837 41.075 3.01837C42.0902 3.01837 45.4137 3.01837 46.0784 3.01837C46.5618 3.01837 47.0694 2.9942 47.4198 2.94586V4.69824C47.0694 4.68615 46.5013 4.66198 46.0784 4.66198C45.4378 4.66198 41.7518 4.66198 41.075 4.66198C40.6158 4.66198 40.0599 4.68615 39.649 4.69824V2.94586ZM38.6338 8.86768C39.1051 8.89185 39.6731 8.94019 40.1565 8.94019C40.9179 8.94019 46.3321 8.94019 47.0935 8.94019C47.4923 8.94019 48.012 8.90393 48.4229 8.86768V10.7167C47.9878 10.6684 47.444 10.6321 47.0935 10.6321C46.3321 10.6321 40.9179 10.6321 40.1565 10.6321C39.6731 10.6321 39.093 10.6684 38.6338 10.7167V8.86768Z" fill="#FF5B49"/>
<path d="M34.8564 1.37325C35.1585 1.8204 35.5815 2.58178 35.8112 3.02894L34.8443 3.45193C34.5905 2.95643 34.228 2.24339 33.9017 1.77206L34.8564 1.37325ZM36.2825 0.829407C36.5967 1.28865 37.0439 2.05003 37.2614 2.47301L36.2946 2.896C36.0529 2.38842 35.654 1.68747 35.3277 1.22822L36.2825 0.829407ZM29.6356 1.905C29.5872 2.26756 29.551 2.8114 29.551 3.16188C29.551 3.89908 29.551 8.34649 29.551 9.25289C29.551 9.78464 29.7927 9.91758 30.3365 10.0143C30.6991 10.0747 31.1946 10.0868 31.7263 10.0868C32.9953 10.0868 34.941 9.94175 35.9441 9.67588V11.4403C34.796 11.6095 32.9711 11.682 31.6417 11.682C30.8562 11.682 30.119 11.6337 29.5993 11.5491C28.56 11.3557 27.9436 10.7877 27.9436 9.7363C27.9436 8.34649 27.9436 3.91117 27.9436 3.16188C27.9436 2.88391 27.9074 2.26756 27.859 1.905H29.6356ZM28.8379 5.6152C30.3969 5.27681 32.4635 4.6242 33.7325 4.10453C34.1555 3.92325 34.5664 3.72989 35.0498 3.45193L35.6903 4.97468C35.2311 5.16804 34.6872 5.39766 34.2884 5.55477C32.8623 6.09861 30.4936 6.81165 28.85 7.19838L28.8379 5.6152Z" fill="#FF5B49"/>
<path d="M17.1919 1.97455C18.0258 2.54256 19.5969 3.79943 20.31 4.53664L19.0773 5.79351C18.4488 5.11673 16.9261 3.79943 16.0438 3.19517L17.1919 1.97455ZM15.6692 10.0234C17.5666 9.7575 19.1256 9.14115 20.2979 8.45229C22.3645 7.21958 23.9356 5.38261 24.709 3.75109L25.6396 5.44304C24.7332 7.08664 23.1258 8.75442 21.1801 9.92669C19.9474 10.6639 18.3884 11.3286 16.6964 11.6186L15.6692 10.0234Z" fill="#FF5B49"/>
<path d="M4.48609 2.58002C4.94533 2.62836 5.56168 2.66462 5.98467 2.66462H12.0757C12.4262 2.66462 12.9217 2.64044 13.1271 2.62836C13.115 2.91841 13.0908 3.38974 13.0908 3.7523V10.0125C13.0908 10.4355 13.1271 11.0639 13.1513 11.4386H11.3989C11.411 11.076 11.4231 10.6409 11.4231 10.1938V4.22362H5.98467C5.47709 4.22362 4.82448 4.24779 4.48609 4.27196V2.58002ZM4.34106 9.14236C4.75197 9.17861 5.29581 9.21487 5.83965 9.21487H12.3778V10.8101H5.88799C5.41666 10.8101 4.73988 10.8343 4.34106 10.8826V9.14236Z" fill="#FF5B49"/>
</svg>
